# xmcd
#
# Track frame offsets: 
#        150
#        12602
#        24197
#        41704
#        55459
#        68971
#        84568
#        97870
#        112179
#        126101
#        138344
#        151573
#        165617
#        182852
#        196684
#        211464
#        224773
#
# Disc length: 3169 seconds
#
# Revision: 0
# Processed by: cddbd v1.5.2PL0 Copyright (c) Steve Scherf et al.
# Submitted via: ExactAudioCopyFreeDBPlugin 1.0
#
DISCID=f00c5f11
DTITLE=Various Artist - Chill Out Blues
DYEAR=2006
DGENRE=Blues
TTITLE0=Little Walter - Last Night
TTITLE1=T-Bone Walker - Wanderin Heart
TTITLE2=Charles Brown - Driftin' Blues
TTITLE3=Guitar Slim - Story Of My Life
TTITLE4=Muddy Waters - Walking Blues
TTITLE5=Eddie Boyd - 24 Hours
TTITLE6=Howling Wolf - Evil Is Going On
TTITLE7=Christine Kittrell - Slave To Lose
TTITLE8=T-Bone Walker - Stormy Monday
TTITLE9=Lloyd Price - Ain't It A Shame
TTITLE10=Lightning Hopkins - Another Fool In Town
TTITLE11=Earl Hooker - Sweet Angel
TTITLE12=Muddy Waters - Sad Sad Day
TTITLE13=Guitar Slim - The Things That I Used To Do
TTITLE14=Eddie Boyd - Third Degree
TTITLE15=B.B. King - When My Heart Beats Like A Hammer
TTITLE16=Percy Mayfield - The River's Invitation
EXTD=
EXTT0=
EXTT1=
EXTT2=
EXTT3=
EXTT4=
EXTT5=
EXTT6=
EXTT7=
EXTT8=
EXTT9=
EXTT10=
EXTT11=
EXTT12=
EXTT13=
EXTT14=
EXTT15=
EXTT16=
PLAYORDER=
